<?xml version="1.0" encoding="UTF-8" standalone="no"?>
<!-- Created with Inkscape (http://www.inkscape.org/) -->

<svg
   width="116.922mm"
   height="95.285004mm"
   viewBox="0 0 123.76197 100.85927"
   version="1.1"
   id="svg5"
   inkscape:version="1.2.2 (732a01da63, 2022-12-09)"
   sodipodi:docname="abcd_graph.svg"
   xmlns:inkscape="http://www.inkscape.org/namespaces/inkscape"
   xmlns:sodipodi="http://sodipodi.sourceforge.net/DTD/sodipodi-0.dtd"
   xmlns="http://www.w3.org/2000/svg"
   xmlns:svg="http://www.w3.org/2000/svg">
  <sodipodi:namedview
     id="namedview7"
     pagecolor="#505050"
     bordercolor="#eeeeee"
     borderopacity="1"
     inkscape:showpageshadow="0"
     inkscape:pageopacity="0"
     inkscape:pagecheckerboard="0"
     inkscape:deskcolor="#505050"
     inkscape:document-units="mm"
     showgrid="false"
     inkscape:zoom="1.0444209"
     inkscape:cx="-0.4787342"
     inkscape:cy="151.28001"
     inkscape:window-width="1920"
     inkscape:window-height="1009"
     inkscape:window-x="-8"
     inkscape:window-y="-8"
     inkscape:window-maximized="1"
     inkscape:current-layer="layer1" />
  <defs
     id="defs2">
    <rect
       x="97.492661"
       y="503.7121"
       width="43.33007"
       height="74.473564"
       id="rect6206" />
    <rect
       x="97.492661"
       y="503.7121"
       width="43.33007"
       height="74.473564"
       id="rect6206-0" />
    <rect
       x="97.492661"
       y="503.7121"
       width="43.33007"
       height="74.473564"
       id="rect6206-0-7" />
    <rect
       x="97.492661"
       y="503.7121"
       width="43.33007"
       height="74.473564"
       id="rect6206-0-4" />
    <rect
       x="97.492661"
       y="503.7121"
       width="43.33007"
       height="74.473564"
       id="rect6206-4" />
    <rect
       x="97.492661"
       y="503.7121"
       width="43.33007"
       height="74.473564"
       id="rect6206-4-0" />
    <rect
       x="97.492661"
       y="503.7121"
       width="43.33007"
       height="74.473564"
       id="rect6206-4-03" />
    <rect
       x="97.492661"
       y="503.7121"
       width="43.33007"
       height="74.473564"
       id="rect6206-4-9" />
    <rect
       x="97.492661"
       y="503.7121"
       width="43.33007"
       height="74.473564"
       id="rect6206-4-06" />
  </defs>
  <g
     inkscape:label="Layer 1"
     inkscape:groupmode="layer"
     id="layer1"
     transform="translate(-61.368543,-113.67259)">
    <g
       id="g288"
       transform="translate(8.7810294,4.4290439)">
      <circle
         style="fill:none;stroke:#000000;stroke-width:0.782335;stroke-dasharray:none;stroke-opacity:1"
         id="path111"
         cx="73.251251"
         cy="133.25021"
         r="11.491541" />
      <circle
         style="fill:none;stroke:#000000;stroke-width:0.782335;stroke-dasharray:none;stroke-opacity:1"
         id="path111-5"
         cx="104.92306"
         cy="157.6347"
         r="11.491541" />
      <circle
         style="fill:none;stroke:#000000;stroke-width:0.782335;stroke-dasharray:none;stroke-opacity:1"
         id="path111-8"
         cx="134.91318"
         cy="127.08402"
         r="11.491541" />
      <circle
         style="fill:none;stroke:#000000;stroke-width:0.782335;stroke-dasharray:none;stroke-opacity:1"
         id="path111-7"
         cx="90.908989"
         cy="193.79103"
         r="11.491541" />
      <path
         style="fill:none;fill-rule:evenodd;stroke:#000000;stroke-width:0.782335;stroke-linecap:butt;stroke-linejoin:miter;stroke-dasharray:none;stroke-opacity:1"
         d="m 82.356555,140.26049 13.461199,10.36394"
         id="path3958"
         inkscape:connector-type="polyline"
         inkscape:connector-curvature="0"
         inkscape:connection-end="#path111-5"
         inkscape:connection-start="#path111" />
      <path
         style="fill:none;fill-rule:evenodd;stroke:#000000;stroke-width:0.782335;stroke-linecap:butt;stroke-linejoin:miter;stroke-dasharray:none;stroke-opacity:1"
         d="m 112.97311,149.43419 13.89002,-14.14965"
         id="path3960"
         inkscape:connector-type="polyline"
         inkscape:connector-curvature="0"
         inkscape:connection-start="#path111-5"
         inkscape:connection-end="#path111-8" />
      <path
         style="fill:none;fill-rule:evenodd;stroke:#000000;stroke-width:0.782335;stroke-linecap:butt;stroke-linejoin:miter;stroke-dasharray:none;stroke-opacity:1"
         d="m 100.77006,168.34945 -5.708071,14.72683"
         id="path3962"
         inkscape:connector-type="polyline"
         inkscape:connector-curvature="0"
         inkscape:connection-start="#path111-5"
         inkscape:connection-end="#path111-7" />
      <g
         aria-label="a"
         transform="matrix(0.23678888,0,0,0.23678888,46.859853,6.0444785)"
         id="text6204"
         style="font-size:53.3333px;white-space:pre;shape-inside:url(#rect6206);stroke:#000000;stroke-width:0.743385;stroke-dasharray:none">
        <path
           d="m 112.85218,523.17289 q 5.22666,0 7.73333,2.29333 2.50666,2.29333 2.50666,7.30666 v 19.46666 h -3.41333 l -0.90667,-4.05333 h -0.21333 q -1.86666,2.34666 -3.94666,3.46666 -2.08,1.12 -5.65333,1.12 -3.89333,0 -6.45333,-2.02666 -2.560001,-2.08 -2.560001,-6.45333 0,-4.26667 3.360001,-6.56 3.36,-2.34667 10.34666,-2.56 l 4.85333,-0.16 v -1.70666 q 0,-3.57334 -1.54667,-4.96 -1.54666,-1.38667 -4.37333,-1.38667 -2.24,0 -4.26666,0.69334 -2.02667,0.64 -3.78667,1.49333 l -1.44,-3.52 q 1.86667,-1.01333 4.42667,-1.70666 2.56,-0.74667 5.33333,-0.74667 z m 5.6,15.09332 -4.21334,0.16 q -5.33333,0.21334 -7.41332,1.70667 -2.02667,1.49333 -2.02667,4.21333 0,2.4 1.44,3.52 1.49333,1.12 3.78666,1.12 3.57333,0 5.97333,-1.97334 2.45334,-2.02666 2.45334,-6.18666 z"
           id="path3606"
           style="stroke-width:0.743385;stroke-dasharray:none" />
      </g>
      <g
         aria-label="3"
         transform="matrix(0.23678888,0,0,0.23678888,63.551874,-1.6823755)"
         id="text6204-3"
         style="font-size:53.3333px;white-space:pre;shape-inside:url(#rect6206-4);stroke:#000000;stroke-width:0.743385;stroke-dasharray:none">
        <path
           d="m 123.78551,523.06622 q 0,3.84 -2.18667,6.13333 -2.13333,2.24 -5.70666,2.98667 v 0.21333 q 4.53333,0.53333 6.77333,2.88 2.29333,2.34666 2.29333,6.13333 0,3.36 -1.54667,5.91999 -1.54666,2.56 -4.8,4 -3.19999,1.44 -8.26666,1.44 -2.98666,0 -5.54666,-0.48 -2.56,-0.42666 -4.906664,-1.6 v -4.37333 q 2.399994,1.22667 5.173334,1.86667 2.77333,0.64 5.33333,0.64 5.11999,0 7.35999,-1.97334 2.29333,-2.02666 2.29333,-5.54666 0,-3.57333 -2.82666,-5.12 -2.77333,-1.59999 -7.84,-1.59999 h -3.67999 v -4 h 3.73333 q 4.69333,0 7.09333,-1.97333 2.45333,-1.97334 2.45333,-5.22667 0,-2.77333 -1.86667,-4.26666 -1.86666,-1.54667 -5.06666,-1.54667 -3.09333,0 -5.28,0.90667 -2.18666,0.90666 -4.32,2.29333 l -2.34666,-3.2 q 2.02666,-1.6 5.01333,-2.77333 3.04,-1.17333 6.88,-1.17333 5.97333,0 8.85332,2.66666 2.93334,2.66667 2.93334,6.77333 z"
           id="path3609"
           style="stroke-width:0.743385;stroke-dasharray:none" />
      </g>
      <g
         aria-label="4"
         transform="matrix(0.23678888,0,0,0.23678888,82.515298,60.805742)"
         id="text6204-3-5"
         style="font-size:53.3333px;white-space:pre;shape-inside:url(#rect6206-4-0);stroke:#000000;stroke-width:0.743385;stroke-dasharray:none">
        <path
           d="m 126.93217,543.59954 h -5.54666 v 8.64 h -4.53333 v -8.64 H 98.612187 v -3.99999 l 17.919993,-25.65332 h 4.85333 v 25.43998 h 5.54666 z m -10.07999,-4.21333 v -11.99999 q 0,-2.77333 0.0533,-4.69333 0.10667,-1.97333 0.21333,-3.73333 h -0.21333 q -0.42667,1.01333 -1.06667,2.18666 -0.64,1.17334 -1.22666,1.97334 l -11.41333,16.26665 z"
           id="path3627"
           style="stroke-width:0.743385;stroke-dasharray:none" />
      </g>
      <g
         aria-label="9"
         transform="matrix(0.23678887,0,0,0.23678888,96.807555,25.773364)"
         id="text6204-3-1"
         style="font-size:53.3333px;white-space:pre;shape-inside:url(#rect6206-4-03);display:inline;stroke:#000000;stroke-width:0.743385;stroke-dasharray:none">
        <path
           d="m 125.2255,530.42622 q 0,4.10666 -0.74666,8.10666 -0.69333,3.94666 -2.61333,7.2 -1.86667,3.19999 -5.33333,5.11999 -3.41334,1.92 -8.8,1.92 -1.06666,0 -2.50666,-0.16 -1.44,-0.10667 -2.29334,-0.37333 v -4 q 2.08,0.69333 4.69333,0.69333 3.73334,0 6.13333,-1.22666 2.45334,-1.22667 3.89334,-3.30667 1.43999,-2.13333 2.07999,-4.90666 0.64,-2.82667 0.74667,-5.92 h -0.32 q -1.22667,1.81333 -3.41333,3.14667 -2.18667,1.28 -5.65333,1.28 -4.90666,0 -7.94666,-2.98667 -2.98667,-3.04 -2.98667,-8.53333 0,-3.99999 1.49334,-6.87999 1.49333,-2.88 4.21333,-4.42667 2.77333,-1.54666 6.45333,-1.54666 3.62666,0 6.55999,1.86666 2.93333,1.81334 4.64,5.54667 1.70666,3.67999 1.70666,9.38666 z m -12.90665,-12.85333 q -3.30667,0 -5.44,2.18667 -2.08,2.18666 -2.08,6.66666 0,3.68 1.76,5.81333 1.81333,2.08 5.54666,2.08 2.56,0 4.42667,-1.01333 1.86666,-1.06667 2.87999,-2.66667 1.06667,-1.6 1.06667,-3.30666 0,-2.29334 -0.90667,-4.53333 -0.90666,-2.24 -2.71999,-3.73334 -1.81334,-1.49333 -4.53333,-1.49333 z"
           id="path3618"
           style="stroke-width:0.743385;stroke-dasharray:none" />
      </g>
      <g
         aria-label="5"
         transform="matrix(0.23678888,0,0,0.23678888,125.81587,-7.9866627)"
         id="text6204-3-0"
         style="font-size:53.3333px;white-space:pre;shape-inside:url(#rect6206-4-06);display:inline;stroke:#000000;stroke-width:0.743385;stroke-dasharray:none">
        <path
           d="m 112.15885,528.87955 q 5.81333,0 9.27999,2.93333 3.52,2.93334 3.52,8.26667 0,5.91999 -3.78667,9.33332 -3.73333,3.36 -10.45332,3.36 -2.98667,0 -5.54667,-0.53333 -2.56,-0.53333 -4.31999,-1.54667 v -4.42666 q 1.91999,1.17333 4.63999,1.86666 2.77333,0.64 5.28,0.64 4.21333,0 6.77333,-1.97333 2.61333,-2.02666 2.61333,-6.23999 0,-3.73334 -2.29333,-5.70667 -2.29333,-2.02666 -7.25333,-2.02666 -1.49333,0 -3.41333,0.26666 -1.92,0.26667 -3.09333,0.53334 l -2.34667,-1.49334 1.44,-17.97332 h 19.09332 v 4.26666 h -15.09332 l -0.90667,11.04 q 0.90667,-0.16 2.45333,-0.37333 1.54667,-0.21334 3.41334,-0.21334 z"
           id="path3615"
           style="stroke-width:0.743385;stroke-dasharray:none" />
      </g>
      <g
         aria-label="b"
         transform="matrix(0.23678887,0,0,0.23678887,77.906306,31.486413)"
         id="text6204-7"
         style="font-size:53.3333px;white-space:pre;shape-inside:url(#rect6206-0);stroke:#000000;stroke-width:0.743385;stroke-dasharray:none">
        <path
           d="m 106.71885,511.70623 v 9.86666 q 0,1.81333 -0.10667,3.41333 -0.0533,1.54667 -0.16,2.45333 h 0.26667 q 1.22666,-1.81333 3.36,-3.04 2.13333,-1.22666 5.49333,-1.22666 5.33333,0 8.53332,3.73333 3.25334,3.68 3.25334,11.03999 0,7.36 -3.25334,11.09333 -3.25333,3.73333 -8.53332,3.73333 -3.36,0 -5.49333,-1.22666 -2.13334,-1.22667 -3.36,-2.93334 h -0.37333 l -0.96,3.62667 h -3.36 v -40.53331 z m 8.05333,15.35999 q -4.58667,0 -6.34667,2.61333 -1.70666,2.61333 -1.70666,8.10666 v 0.21334 q 0,5.27999 1.70666,8.10666 1.76,2.77333 6.45333,2.77333 3.84,0 5.70667,-2.82666 1.92,-2.82667 1.92,-8.16 0,-10.82666 -7.73333,-10.82666 z"
           id="path3621"
           style="stroke-width:0.743385;stroke-dasharray:none" />
      </g>
      <g
         aria-label="c"
         transform="matrix(0.23678888,0,0,0.23678887,64.7603,66.549979)"
         id="text6204-7-5"
         style="font-size:53.3333px;white-space:pre;shape-inside:url(#rect6206-0-7);stroke:#000000;stroke-width:0.743385;stroke-dasharray:none">
        <path
           d="m 113.49218,552.77287 q -3.84,0 -6.77333,-1.54666 -2.93333,-1.54667 -4.64,-4.8 -1.65333,-3.25333 -1.65333,-8.32 0,-5.27999 1.70666,-8.58666 1.76,-3.30666 4.8,-4.85333 3.04,-1.54666 6.88,-1.54666 2.13333,0 4.16,0.48 2.07999,0.42666 3.35999,1.06666 l -1.44,3.89333 q -1.28,-0.48 -2.98666,-0.90666 -1.70667,-0.42667 -3.2,-0.42667 -8.42666,0 -8.42666,10.82666 0,5.17333 2.02666,7.94666 2.08,2.72 6.13333,2.72 2.29334,0 4.10667,-0.48 1.81333,-0.48 3.30666,-1.17333 v 4.16 q -1.44,0.74666 -3.19999,1.11999 -1.70667,0.42667 -4.16,0.42667 z"
           id="path3624"
           style="stroke-width:0.743385;stroke-dasharray:none" />
      </g>
      <g
         aria-label="d"
         transform="matrix(0.23678888,0,0,0.23678887,107.71326,1.055628)"
         id="text6204-7-7"
         style="font-size:53.3333px;white-space:pre;shape-inside:url(#rect6206-0-4);display:inline;stroke:#000000;stroke-width:0.743385;stroke-dasharray:none">
        <path
           d="m 112.15885,552.77287 q -5.33333,0 -8.53333,-3.68 -3.2,-3.73333 -3.2,-11.09332 0,-7.36 3.2,-11.09333 3.25333,-3.78666 8.58666,-3.78666 3.30666,0 5.38666,1.22666 2.13333,1.22667 3.46667,2.98667 h 0.32 q -0.10667,-0.69334 -0.21334,-2.02667 -0.10666,-1.38666 -0.10666,-2.18666 v -11.41333 h 4.69333 v 40.53331 h -3.78667 l -0.69333,-3.84 h -0.21333 q -1.28,1.81333 -3.41333,3.09333 -2.13334,1.28 -5.49333,1.28 z m 0.74666,-3.89333 q 4.53333,0 6.34666,-2.45333 1.86667,-2.50667 1.86667,-7.52 v -0.85333 q 0,-5.33333 -1.76,-8.16 -1.76,-2.87999 -6.50666,-2.87999 -3.78667,0 -5.70666,3.03999 -1.86667,2.98667 -1.86667,8.05333 0,5.12 1.86667,7.94667 1.91999,2.82666 5.75999,2.82666 z"
           id="path3612"
           style="stroke-width:0.743385;stroke-dasharray:none" />
      </g>
    </g>
  </g>
</svg>
